<!DOCTYPE svg PUBLIC "-//W3C//DTD SVG 1.1//EN" "http://www.w3.org/Graphics/SVG/1.1/DTD/svg11.dtd">
<!-- Uploaded to: SVG Repo, www.svgrepo.com, Transformed by: SVG Repo Mixer Tools -->
<svg fill="#000000" height="128px" width="128px" version="1.1" id="Layer_1" xmlns="http://www.w3.org/2000/svg" xmlns:xlink="http://www.w3.org/1999/xlink" viewBox="-51.2 -51.2 614.40 614.40" xml:space="preserve" stroke="#000000" stroke-width="2.56" transform="matrix(1, 0, 0, 1, 0, 0)rotate(0)">
<g id="SVGRepo_bgCarrier" stroke-width="0"/>
<g id="SVGRepo_tracerCarrier" stroke-linecap="round" stroke-linejoin="round" stroke="#CCCCCC" stroke-width="11.264"/>
<g id="SVGRepo_iconCarrier"> <g> <g> <path d="M502.857,0H9.143C4.094,0,0,4.094,0,9.143v493.714C0,507.906,4.094,512,9.143,512h493.714 c5.049,0,9.143-4.094,9.143-9.143V9.143C512,4.094,507.906,0,502.857,0z M493.714,493.714H18.286V18.286h475.429V493.714z"/> </g> </g> <g> <g> <path d="M118.976,119.417c0.05-0.388-0.118-0.771-0.118-1.173V90.816c0-5.05-4.094-9.143-9.143-9.143s-9.143,4.093-9.143,9.143 v27.429c0,0.402,0.541,0.785,0.592,1.173c-15.807,4.035-27.784,18.352-27.784,35.398c0,17.003,13.478,31.291,27.192,35.367 v220.633c0,5.049,4.094,9.143,9.143,9.143s9.143-4.094,9.143-9.143V190.183c16-4.076,27.902-18.364,27.902-35.367 C146.759,137.769,134.782,123.452,118.976,119.417z M110.661,173.102c-10.085,0-18.286-8.202-18.286-18.286 c0-10.085,8.201-18.286,18.286-18.286c10.085,0,18.286,8.201,18.286,18.286C128.947,164.9,120.746,173.102,110.661,173.102z"/> </g> </g> <g> <g> <path d="M265.143,210.876V90.816c0-5.05-4.094-9.143-9.143-9.143s-9.143,4.093-9.143,9.143v120.06 c-13.714,4.076-27.429,18.365-27.429,35.368c0,17.003,13.714,31.291,27.429,35.367v147.49c0,5.049,4.094,9.142,9.143,9.142 s9.143-4.093,9.143-9.142v-147.49c16-4.076,27.429-18.364,27.429-35.367C292.571,229.241,281.143,214.952,265.143,210.876z M256.947,264.53c-10.085,0-18.286-8.202-18.286-18.286c0-10.085,8.201-18.286,18.286-18.286c10.085,0,18.286,8.201,18.286,18.286 C275.232,256.328,267.031,264.53,256.947,264.53z"/> </g> </g> <g> <g> <path d="M411.429,302.305V90.816c0-5.05-4.094-9.143-9.143-9.143c-5.049,0-9.143,4.093-9.143,9.143v211.489 c-13.714,4.076-27.192,18.365-27.192,35.368c0,17.046,11.977,31.363,27.784,35.398c-0.05,0.388-0.592,0.771-0.592,1.174v36.571 c0,5.049,4.094,9.143,9.143,9.143c5.049,0,9.143-4.094,9.143-9.143v-36.571c0-0.403,0.405-0.786,0.355-1.174 c15.807-4.035,27.31-18.352,27.31-35.398C439.094,320.67,427.429,306.381,411.429,302.305z M403.232,355.959 c-10.085,0-18.286-8.202-18.286-18.286c0-10.085,8.201-18.286,18.286-18.286s18.286,8.201,18.286,18.286 C421.518,347.757,413.317,355.959,403.232,355.959z"/> </g> </g> </g>
</svg>