<?xml version="1.0" encoding="iso-8859-1"?>
<!-- Uploaded to: SVG Repo, www.svgrepo.com, Generator: SVG Repo Mixer Tools -->
<svg fill="#000000" height="800px" width="800px" version="1.1" id="Layer_1" xmlns="http://www.w3.org/2000/svg" xmlns:xlink="http://www.w3.org/1999/xlink" 
	 viewBox="0 0 512 512" xml:space="preserve">
<g>
	<g>
		<path d="M107.558,92.495H35.921c-19.763,0-35.838,16.075-35.838,35.828c0,19.754,16.075,35.828,35.838,35.828h71.637
			c19.764,0,35.838-16.075,35.838-35.828C143.396,108.57,127.322,92.495,107.558,92.495z M107.558,143.679H35.921
			c-8.467,0-15.365-6.888-15.365-15.355s6.898-15.355,15.365-15.355h71.637c8.467,0,15.365,6.888,15.365,15.355
			S116.025,143.679,107.558,143.679z"/>
	</g>
</g>
<g>
	<g>
		<path d="M476.079,194.862h-71.637c-19.763,0-35.838,16.075-35.838,35.828c0,19.753,16.075,35.828,35.838,35.828h71.637
			c19.764,0,35.838-16.075,35.838-35.828C511.917,210.937,495.843,194.862,476.079,194.862z M476.079,246.046h-71.637
			c-8.467,0-15.365-6.888-15.365-15.355s6.898-15.355,15.365-15.355h71.637c8.467,0,15.365,6.888,15.365,15.355
			S484.546,246.046,476.079,246.046z"/>
	</g>
</g>
<g>
	<g>
		<path d="M291.818,348.413h-71.637c-19.763,0-35.838,16.075-35.838,35.828c0,19.753,16.075,35.828,35.838,35.828h71.637
			c19.764,0,35.838-16.075,35.838-35.828C327.657,364.487,311.582,348.413,291.818,348.413z M291.818,399.596h-71.637
			c-8.467,0-15.365-6.888-15.365-15.355s6.898-15.355,15.365-15.355h71.637c8.467,0,15.365,6.888,15.365,15.355
			S300.286,399.596,291.818,399.596z"/>
	</g>
</g>
<g>
	<g>
		<path d="M70.46,0c-5.658,0-10.237,4.583-10.237,10.237v61.42c0,5.653,4.579,10.237,10.237,10.237s10.237-4.583,10.237-10.237
			v-61.42C80.697,4.583,76.118,0,70.46,0z"/>
	</g>
</g>
<g>
	<g>
		<path d="M438.981,0c-5.658,0-10.237,4.583-10.237,10.237v163.787c0,5.653,4.579,10.237,10.237,10.237
			c5.658,0,10.237-4.583,10.237-10.237V10.237C449.218,4.583,444.639,0,438.981,0z"/>
	</g>
</g>
<g>
	<g>
		<path d="M254.72,0c-5.658,0-10.237,4.583-10.237,10.237v317.338c0,5.653,4.579,10.237,10.237,10.237s10.237-4.583,10.237-10.237
			V10.237C264.957,4.583,260.378,0,254.72,0z"/>
	</g>
</g>
<g>
	<g>
		<path d="M70.46,174.024c-5.658,0-10.237,4.583-10.237,10.237v317.503c0,5.653,4.579,10.237,10.237,10.237
			s10.237-4.583,10.237-10.237V184.261C80.697,178.607,76.118,174.024,70.46,174.024z"/>
	</g>
</g>
<g>
	<g>
		<path d="M438.981,276.391c-5.658,0-10.237,4.583-10.237,10.237v215.136c0,5.653,4.579,10.237,10.237,10.237
			c5.658,0,10.237-4.583,10.237-10.237V286.628C449.218,280.974,444.639,276.391,438.981,276.391z"/>
	</g>
</g>
<g>
	<g>
		<path d="M254.72,429.941c-5.658,0-10.237,4.583-10.237,10.237v61.585c0,5.653,4.579,10.237,10.237,10.237
			s10.237-4.583,10.237-10.237v-61.585C264.957,434.525,260.378,429.941,254.72,429.941z"/>
	</g>
</g>
</svg>